<svg 
 xmlns="http://www.w3.org/2000/svg"
 xmlns:xlink="http://www.w3.org/1999/xlink"
 width="152px" height="130px">
<path fill-rule="evenodd"  opacity="0.102" fill="rgb(229, 69, 125)"
 d="M45.600,130.000 C45.600,130.000 22.800,130.000 22.800,130.000 C22.800,130.000 22.800,68.824 22.800,68.824 C22.800,68.824 0.000,68.824 0.000,68.824 C0.000,68.824 76.000,0.000 76.000,0.000 C76.000,0.000 152.000,68.824 152.000,68.824 C152.000,68.824 129.200,68.824 129.200,68.824 C129.200,68.824 129.200,130.000 129.200,130.000 C129.200,130.000 76.000,130.000 76.000,130.000 C76.000,130.000 76.000,84.118 76.000,84.118 C76.000,84.118 45.600,84.118 45.600,84.118 C45.600,84.118 45.600,130.000 45.600,130.000 M91.200,84.118 C91.200,84.118 91.200,107.059 91.200,107.059 C91.200,107.059 114.000,107.059 114.000,107.059 C114.000,107.059 114.000,84.118 114.000,84.118 C114.000,84.118 91.200,84.118 91.200,84.118 Z"/>
</svg>