<svg 
 xmlns="http://www.w3.org/2000/svg"
 xmlns:xlink="http://www.w3.org/1999/xlink"
 width="28px" height="43px">
<path fill-rule="evenodd"  stroke="rgb(255, 255, 255)" stroke-width="2px" stroke-linecap="butt" stroke-linejoin="miter" fill="rgb(229, 69, 125)"
 d="M20.769,30.818 C20.769,30.818 6.231,30.818 6.231,30.818 C6.231,30.818 6.231,7.909 6.231,7.909 C6.231,7.909 20.769,7.909 20.769,7.909 M13.500,37.364 C12.162,37.364 11.077,36.265 11.077,34.909 C11.077,33.554 12.162,32.455 13.500,32.455 C14.838,32.455 15.923,33.554 15.923,34.909 C15.923,36.265 14.838,37.364 13.500,37.364 M19.962,3.000 C19.962,3.000 7.039,3.000 7.039,3.000 C4.808,3.000 3.000,4.832 3.000,7.091 C3.000,7.091 3.000,34.909 3.000,34.909 C3.000,37.168 4.808,39.000 7.039,39.000 C7.039,39.000 19.962,39.000 19.962,39.000 C22.192,39.000 24.000,37.168 24.000,34.909 C24.000,34.909 24.000,7.091 24.000,7.091 C24.000,4.832 22.192,3.000 19.962,3.000 Z"/>
</svg>