<svg 
 xmlns="http://www.w3.org/2000/svg"
 xmlns:xlink="http://www.w3.org/1999/xlink"
 width="44px" height="37px">
<path fill-rule="evenodd"  stroke="rgb(255, 255, 255)" stroke-width="2px" stroke-linecap="butt" stroke-linejoin="miter" fill="rgb(229, 69, 125)"
 d="M35.833,10.800 C35.833,10.800 21.500,19.800 21.500,19.800 C21.500,19.800 7.167,10.800 7.167,10.800 C7.167,10.800 7.167,7.200 7.167,7.200 C7.167,7.200 21.500,16.200 21.500,16.200 C21.500,16.200 35.833,7.200 35.833,7.200 M35.833,3.600 C35.833,3.600 7.167,3.600 7.167,3.600 C5.178,3.600 3.583,5.202 3.583,7.200 C3.583,7.200 3.583,28.800 3.583,28.800 C3.583,30.788 5.188,32.400 7.167,32.400 C7.167,32.400 35.833,32.400 35.833,32.400 C37.812,32.400 39.417,30.788 39.417,28.800 C39.417,28.800 39.417,7.200 39.417,7.200 C39.417,5.202 37.804,3.600 35.833,3.600 Z"/>
</svg>