<svg 
 xmlns="http://www.w3.org/2000/svg"
 xmlns:xlink="http://www.w3.org/1999/xlink"
 width="30px" height="30px">
<path fill-rule="evenodd"  fill="rgb(229, 69, 125)"
 d="M22.500,15.000 C22.500,15.000 15.000,22.500 15.000,22.500 C15.000,22.500 15.000,18.000 15.000,18.000 C15.000,18.000 9.000,18.000 9.000,18.000 C9.000,18.000 9.000,12.000 9.000,12.000 C9.000,12.000 15.000,12.000 15.000,12.000 C15.000,12.000 15.000,7.500 15.000,7.500 C15.000,7.500 22.500,15.000 22.500,15.000 M0.000,15.000 C0.000,6.716 6.716,0.000 15.000,0.000 C23.284,0.000 30.000,6.716 30.000,15.000 C30.000,23.284 23.284,30.000 15.000,30.000 C6.716,30.000 0.000,23.284 0.000,15.000 M3.000,15.000 C3.000,21.627 8.373,27.000 15.000,27.000 C21.627,27.000 27.000,21.627 27.000,15.000 C27.000,8.373 21.627,3.000 15.000,3.000 C8.373,3.000 3.000,8.373 3.000,15.000 Z"/>
</svg>