<svg 
 xmlns="http://www.w3.org/2000/svg"
 xmlns:xlink="http://www.w3.org/1999/xlink"
 width="30px" height="30px">
<path fill-rule="evenodd"  fill="rgb(105, 105, 105)"
 d="M7.500,15.000 C7.500,15.000 15.000,22.500 15.000,22.500 C15.000,22.500 15.000,18.000 15.000,18.000 C15.000,18.000 21.000,18.000 21.000,18.000 C21.000,18.000 21.000,12.000 21.000,12.000 C21.000,12.000 15.000,12.000 15.000,12.000 C15.000,12.000 15.000,7.500 15.000,7.500 C15.000,7.500 7.500,15.000 7.500,15.000 M30.000,15.000 C30.000,6.716 23.284,0.000 15.000,0.000 C6.716,0.000 0.000,6.716 0.000,15.000 C0.000,23.284 6.716,30.000 15.000,30.000 C23.284,30.000 30.000,23.284 30.000,15.000 M27.000,15.000 C27.000,21.627 21.628,27.000 15.000,27.000 C8.372,27.000 3.000,21.627 3.000,15.000 C3.000,8.373 8.372,3.000 15.000,3.000 C21.628,3.000 27.000,8.373 27.000,15.000 Z"/>
</svg>