<svg 
 xmlns="http://www.w3.org/2000/svg"
 xmlns:xlink="http://www.w3.org/1999/xlink"
 width="38px" height="34px">
<path fill-rule="evenodd"  fill="rgb(229, 69, 125)"
 d="M36.273,17.000 C36.273,17.000 36.273,30.600 36.273,30.600 C36.273,32.478 34.726,34.000 32.818,34.000 C32.818,34.000 5.182,34.000 5.182,34.000 C3.274,34.000 1.727,32.478 1.727,30.600 C1.727,30.600 1.727,17.000 1.727,17.000 C0.773,17.000 -0.000,16.239 -0.000,15.300 C-0.000,15.300 -0.000,10.200 -0.000,10.200 C-0.000,8.322 1.547,6.800 3.455,6.800 C3.455,6.800 8.930,6.800 8.930,6.800 C8.740,6.273 8.636,5.695 8.636,5.100 C8.636,2.283 10.956,0.000 13.818,0.000 C15.545,0.000 17.065,0.850 18.015,2.108 C18.015,2.108 18.015,2.091 18.015,2.091 C18.015,2.091 19.000,3.400 19.000,3.400 C19.000,3.400 19.985,2.091 19.985,2.091 C19.985,2.091 19.985,2.108 19.985,2.108 C20.935,0.850 22.455,0.000 24.182,0.000 C27.044,0.000 29.364,2.283 29.364,5.100 C29.364,5.695 29.260,6.273 29.070,6.800 C29.070,6.800 34.545,6.800 34.545,6.800 C36.453,6.800 38.000,8.322 38.000,10.200 C38.000,10.200 38.000,15.300 38.000,15.300 C38.000,16.239 37.227,17.000 36.273,17.000 M5.182,30.600 C5.182,30.600 17.273,30.600 17.273,30.600 C17.273,30.600 17.273,17.000 17.273,17.000 C17.273,17.000 5.182,17.000 5.182,17.000 C5.182,17.000 5.182,30.600 5.182,30.600 M32.818,30.600 C32.818,30.600 32.818,17.000 32.818,17.000 C32.818,17.000 20.727,17.000 20.727,17.000 C20.727,17.000 20.727,30.600 20.727,30.600 C20.727,30.600 32.818,30.600 32.818,30.600 M13.818,3.400 C12.864,3.400 12.091,4.161 12.091,5.100 C12.091,6.039 12.864,6.800 13.818,6.800 C14.772,6.800 15.545,6.039 15.545,5.100 C15.545,4.161 14.772,3.400 13.818,3.400 M24.182,3.400 C23.228,3.400 22.455,4.161 22.455,5.100 C22.455,6.039 23.228,6.800 24.182,6.800 C25.136,6.800 25.909,6.039 25.909,5.100 C25.909,4.161 25.136,3.400 24.182,3.400 M3.455,10.200 C3.455,10.200 3.455,13.600 3.455,13.600 C3.455,13.600 17.273,13.600 17.273,13.600 C17.273,13.600 17.273,10.200 17.273,10.200 C17.273,10.200 3.455,10.200 3.455,10.200 M20.727,10.200 C20.727,10.200 20.727,13.600 20.727,13.600 C20.727,13.600 34.545,13.600 34.545,13.600 C34.545,13.600 34.545,10.200 34.545,10.200 C34.545,10.200 20.727,10.200 20.727,10.200 Z"/>
</svg>