<svg 
 xmlns="http://www.w3.org/2000/svg"
 xmlns:xlink="http://www.w3.org/1999/xlink"
 width="30px" height="30px">
<path fill-rule="evenodd"  fill="rgb(105, 105, 105)"
 d="M27.670,0.010 C27.670,0.010 29.979,2.319 29.979,2.319 C29.979,2.319 20.678,11.603 20.678,11.603 C22.418,14.107 22.662,17.115 21.199,19.067 C21.199,19.067 10.923,8.791 10.923,8.791 C12.874,7.327 15.882,7.571 18.386,9.311 C18.386,9.311 27.670,0.010 27.670,0.010 M5.834,24.156 C2.566,20.887 0.566,16.985 0.013,13.343 C0.013,13.343 7.947,9.945 7.947,9.945 C7.947,9.945 20.044,22.042 20.044,22.042 C20.044,22.042 16.646,29.977 16.646,29.977 C13.004,29.424 9.102,27.424 5.834,24.156 Z"/>
</svg>