<svg 
 xmlns="http://www.w3.org/2000/svg"
 xmlns:xlink="http://www.w3.org/1999/xlink"
 width="30px" height="30px">
<path fill-rule="evenodd"  fill="rgb(229, 69, 125)"
 d="M0.000,-0.000 C0.000,-0.000 0.000,13.500 0.000,13.500 C0.000,15.000 1.500,16.500 3.000,16.500 C3.000,16.500 6.300,16.500 6.300,16.500 C6.900,19.500 8.850,22.050 13.500,22.500 C13.500,22.500 13.500,25.650 13.500,25.650 C10.200,25.950 9.000,27.600 9.000,29.550 C9.000,29.550 9.000,30.000 9.000,30.000 C9.000,30.000 21.000,30.000 21.000,30.000 C21.000,30.000 21.000,29.550 21.000,29.550 C21.000,27.600 19.800,25.950 16.500,25.650 C16.500,25.650 16.500,22.500 16.500,22.500 C21.150,22.050 23.100,19.500 23.700,16.500 C23.700,16.500 27.000,16.500 27.000,16.500 C28.500,16.500 30.000,15.000 30.000,13.500 C30.000,13.500 30.000,-0.000 30.000,-0.000 C30.000,-0.000 24.000,-0.000 24.000,-0.000 C22.650,-0.000 21.000,1.500 21.000,3.000 C21.000,3.000 9.000,3.000 9.000,3.000 C9.000,1.500 7.350,-0.000 6.000,-0.000 C6.000,-0.000 0.000,-0.000 0.000,-0.000 M3.000,3.000 C3.000,3.000 6.000,3.000 6.000,3.000 C6.000,3.000 6.000,6.000 6.000,6.000 C6.000,6.000 6.000,13.500 6.000,13.500 C6.000,13.500 3.000,13.500 3.000,13.500 C3.000,13.500 3.000,3.000 3.000,3.000 M24.000,3.000 C24.000,3.000 27.000,3.000 27.000,3.000 C27.000,3.000 27.000,13.500 27.000,13.500 C27.000,13.500 24.000,13.500 24.000,13.500 C24.000,13.500 24.000,6.000 24.000,6.000 C24.000,6.000 24.000,3.000 24.000,3.000 M9.000,6.000 C9.000,6.000 21.000,6.000 21.000,6.000 C21.000,6.000 21.000,14.250 21.000,14.250 C21.000,17.145 20.130,19.500 15.000,19.500 C9.885,19.500 9.000,17.145 9.000,14.250 C9.000,14.250 9.000,6.000 9.000,6.000 Z"/>
</svg>